<svg id="Layer_1" data-name="Layer 1" xmlns="http://www.w3.org/2000/svg" viewBox="0 0 631.11 880"><defs><style>.cls-1{fill:red;}</style></defs><title>Logo</title><path class="cls-1" d="M631.11,564.45v1.74A145.46,145.46,0,0,1,519.12,707l-1,.24a316.54,316.54,0,0,1-71.42,8.12q-12,0-23.82-.89a184.49,184.49,0,0,0,77.15-150C500,462.58,417.42,380,315.56,380A184.3,184.3,0,0,0,131.11,564.45c0,101.86,82.58,184.44,184.45,184.44V880a314.06,314.06,0,0,1-184.45-59.5C51.69,763.2,0,669.86,0,564.45S51.69,365.69,131.11,308.39q8.4-6.06,17.2-11.58a313.62,313.62,0,0,1,21.16-47.92H0V0H131.11V124.45H435.29A317,317,0,0,0,315.56,243.1c-1.1,1.93-2.2,3.86-3.26,5.81h0l3.26,0C489.84,248.89,631.11,390.17,631.11,564.45Z"/><polygon class="cls-1" points="369.39 563.83 280.61 652.62 280.61 475.05 369.39 563.83"/></svg>